<?xml version="1.0" standalone="no"?><!DOCTYPE svg PUBLIC "-//W3C//DTD SVG 1.1//EN" "http://www.w3.org/Graphics/SVG/1.1/DTD/svg11.dtd"><svg t="1604375659632" class="icon" viewBox="0 0 1024 1024" version="1.1" xmlns="http://www.w3.org/2000/svg" p-id="13074" xmlns:xlink="http://www.w3.org/1999/xlink" width="128" height="128"><defs><style type="text/css"></style></defs><path d="M716.8 805.823147 716.8 384.709973c0-95.68256-77.544107-173.2608-173.216427-173.2608L56.664747 211.449173c-3.754667 0-6.795947 3.024213-6.795947 6.741333L49.8688 805.819733c0 3.71712 3.04128 6.72768 6.795947 6.72768l130.061653 0c3.754667 0 6.792533-3.027627 6.792533-6.765227L193.518933 344.562347c0-3.744427 3.04128-6.782293 6.795947-6.782293l279.68512 0c52.52096 0 95.112533 42.571093 95.112533 95.09888l0 372.8896c0 3.741013 3.037867 6.761813 6.772053 6.761813l128.146773 0c3.72736 0 6.772053-3.017387 6.772053-6.72768M454.15424 805.778773c0 3.744427-3.01056 6.76864-6.76864 6.76864L317.354667 812.547413c-3.754667 0-6.795947-3.027627-6.795947-6.76864L310.55872 452.348587c0-3.741013 3.04128-6.77888 6.795947-6.77888l130.030933 0c3.75808 0 6.76864 3.037867 6.76864 6.77888l0 353.447253L454.15424 805.778773zM974.134613 805.778773c0 3.744427-3.044693 6.76864-6.79936 6.76864l-130.000213 0c-3.764907 0-6.826667-3.027627-6.826667-6.76864L830.508373 218.251947c0-3.75808 3.06176-6.792533 6.826667-6.792533l130.000213 0c3.75808 0 6.79936 3.034453 6.79936 6.792533L974.134613 805.778773z" p-id="13075" fill="#ff6700"></path></svg>