<?xml version="1.0" standalone="no"?><!DOCTYPE svg PUBLIC "-//W3C//DTD SVG 1.1//EN" "http://www.w3.org/Graphics/SVG/1.1/DTD/svg11.dtd"><svg t="1604388423244" class="icon" viewBox="0 0 1024 1024" version="1.1" xmlns="http://www.w3.org/2000/svg" p-id="4400" xmlns:xlink="http://www.w3.org/1999/xlink" width="128" height="128"><defs><style type="text/css"></style></defs><path d="M514.3 183.8L367.7 492.1 136 324v564h752V323.9L659.4 489.1 514.3 183.8zM512 778c-41.3 0-74.8-51.9-74.8-116s33.5-116 74.8-116 74.8 51.9 74.8 116-33.5 116-74.8 116z" fill="#FFEB3B" p-id="4401"></path><path d="M687.3 380.1L546.8 84.5c-13-27.4-52-27.4-65 0L339.9 383 121.1 224.3C97.3 207 64 224 64 253.4V924c0 19.9 16.1 36 36 36h824c19.9 0 36-16.1 36-36V253.4c0-29.4-33.3-46.4-57.1-29.2L687.3 380.1zM888 888H136V324l231.7 168.1 146.5-308.3 145.1 305.3L888 323.9V888z" fill="#FF9800" p-id="4402"></path><path d="M437.2 662a74.8 116 0 1 0 149.6 0 74.8 116 0 1 0-149.6 0Z" fill="#FF5722" p-id="4403"></path></svg>